<svg width="264" height="101" viewBox="0 0 264 101" fill="none" xmlns="http://www.w3.org/2000/svg">
<g clip-path="url(#clip0)">
<path d="M51.4464 -0.0431099C89.829 36.0168 123.697 43.6523 153.053 22.8616C125.665 38.5119 91.7965 30.8782 51.4464 -0.0431099Z" fill="#88C946"/>
<path d="M0.00695801 61.9253C70.2937 0.998407 129.46 -13.5087 177.51 18.4059C132.242 -5.28862 73.0734 9.21844 0.00695801 61.9253Z" fill="#88C946"/>
<path d="M178.104 53.1811C176.321 53.1811 174.561 53.4225 172.873 53.9019C171.165 54.3864 169.431 55.0968 167.717 56.0125C166.782 56.5557 165.896 57.0764 165.103 57.5541C164.308 58.0334 163.551 58.4956 162.832 58.9456L161.771 59.6112L161.171 58.5007C160.336 56.9523 159.093 55.6642 157.477 54.6761C155.853 53.6846 153.875 53.1811 151.597 53.1811C148.906 53.1811 146.323 53.6415 143.917 54.5502C141.493 55.4676 139.184 56.7505 137.056 58.3662L135.913 59.2319L133.709 54.8141C133.655 54.752 133.533 54.633 133.271 54.4881C132.907 54.2898 132.747 54.2881 132.74 54.2881H123.306C122.983 54.2881 122.738 54.3881 122.513 54.6158C122.307 54.8244 122.216 55.0244 122.2 55.3072L119.698 99.2061C119.678 99.544 119.747 99.7751 119.928 99.982C120.126 100.21 120.359 100.31 120.681 100.31H134.011C134.333 100.31 134.576 100.21 134.8 99.9837C135.006 99.7751 135.102 99.544 135.119 99.2061L136.668 72.0525H130.345L136.106 69.2194L140.01 67.2588C141.868 66.3276 143.686 65.8552 145.409 65.8552C146.126 65.8552 147.419 66.1742 148.03 68.3089C148.371 69.5125 148.487 70.992 148.383 72.8319L146.879 99.2061C146.859 99.544 146.928 99.7751 147.107 99.982C147.307 100.21 147.54 100.31 147.862 100.31H161.192C161.514 100.31 161.757 100.21 161.981 99.9837C162.187 99.7751 162.281 99.544 162.3 99.2061L164.016 69.1194L164.659 68.6986C164.973 68.4917 165.372 68.2796 165.875 68.0485C166.299 67.8554 166.785 67.6226 167.334 67.3467C168.191 66.8743 169.075 66.4949 169.919 66.2449C170.788 65.9845 171.662 65.8552 172.516 65.8552C173.231 65.8552 174.524 66.1742 175.135 68.3089C175.476 69.5125 175.594 70.992 175.488 72.8319L173.985 99.2061C173.966 99.544 174.035 99.7751 174.214 99.982C174.412 100.21 174.645 100.31 174.969 100.31H188.297C188.619 100.31 188.864 100.21 189.088 99.982C189.294 99.7751 189.388 99.544 189.407 99.2061L191.071 70.0247C191.716 58.6904 187.474 53.1811 178.104 53.1811Z" fill="#0E2F4F"/>
<path d="M113.425 35.4167C109.411 35.4167 105.972 38.6068 105.748 42.54C105.524 46.475 108.599 49.6634 112.613 49.6634C116.629 49.6634 120.066 46.475 120.291 42.54C120.516 38.6068 117.441 35.4167 113.425 35.4167Z" fill="#0E2F4F"/>
<path d="M250.927 53.1811C249.143 53.1811 247.384 53.4225 245.696 53.9019C243.989 54.3864 242.254 55.0968 240.54 56.0125C239.604 56.5557 238.719 57.0764 237.924 57.5541C237.129 58.0334 236.374 58.4956 235.655 58.9456L234.593 59.6112L233.994 58.5007C233.158 56.9523 231.915 55.6642 230.299 54.6761C228.676 53.6846 226.698 53.1811 224.421 53.1811L216.74 54.5502C214.314 55.4676 212.005 56.7505 209.877 58.3662L208.734 59.2319L206.53 54.8141C206.477 54.752 206.356 54.633 206.094 54.4881C205.728 54.2898 205.57 54.2881 205.563 54.2881H196.127C195.807 54.2881 195.562 54.3881 195.336 54.6158C195.131 54.8244 195.039 55.0244 195.022 55.3072L192.52 99.2061C192.501 99.544 192.57 99.7751 192.749 99.982C192.948 100.21 193.182 100.31 193.505 100.31H206.832C207.155 100.31 207.399 100.21 207.624 99.9837C207.827 99.7751 207.924 99.544 207.943 99.2061L209.489 72.0525H203.166L208.927 69.2194L212.831 67.2588C214.692 66.3276 216.507 65.8552 218.232 65.8552C218.947 65.8552 220.241 66.1742 220.851 68.3089C221.194 69.5125 221.308 70.992 221.205 72.8319L219.701 99.2061C219.682 99.544 219.751 99.7751 219.93 99.982C220.129 100.21 220.361 100.31 220.684 100.31H234.013C234.336 100.31 234.581 100.21 234.805 99.9837C235.008 99.7751 235.105 99.544 235.124 99.2061L236.839 69.1194L237.481 68.6986C237.796 68.4917 238.195 68.2796 238.697 68.0485C239.123 67.8554 239.607 67.6226 240.157 67.3467C241.014 66.8743 241.897 66.4949 242.74 66.2449C243.611 65.9845 244.484 65.8552 245.337 65.8552C246.054 65.8552 247.348 66.1742 247.958 68.3089C248.3 69.5125 248.415 70.992 248.31 72.8319L246.768 99.8837H262.191L263.893 70.0247C264.54 58.6904 260.298 53.1811 250.927 53.1811Z" fill="#0E2F4F"/>
<path d="M118.936 53.5846C118.672 53.4087 118.391 53.2587 118.105 53.1483C117.765 53.0173 117.61 53.0104 117.583 53.0104H107.024C106.888 53.0104 106.8 53.0414 106.671 53.2173C106.481 53.4725 106.385 53.757 106.364 54.1157L105.557 68.2606C104.988 67.3346 104.315 66.4621 103.536 65.6396C100.625 62.4219 94.8761 59.9095 86.425 58.1524C83.973 57.6955 81.7986 57.1799 79.9897 56.6264C78.1895 56.078 76.6462 55.5676 75.4029 55.1072C72.9819 54.1812 72.5508 52.6879 72.6129 51.5981C72.7319 49.5237 74.4856 48.5701 76.191 48.1201C78.355 47.5528 80.4639 47.2786 82.6797 47.3803C87.3338 47.5959 91.7792 49.0823 96.0125 50.8084C97.8679 51.5636 99.6526 52.3862 101.322 53.2501C101.582 53.3984 101.775 53.4604 101.937 53.4604C102.034 53.4604 102.189 53.4415 102.42 53.2673C102.743 53.0259 102.951 52.7293 102.922 52.062L102.134 37.1186C102.124 36.9583 102.027 36.7393 101.855 36.5013C101.71 36.2996 101.565 36.1771 101.429 36.1409L101.351 36.1185C100.38 35.7926 99.1301 35.4598 97.6403 35.1287C92.9483 34.0889 88.146 33.4802 83.3384 33.4802C74.9201 33.4802 68.202 35.2563 63.3686 38.7585C58.6128 42.2038 56.1142 47.1579 55.7297 53.9053C55.6986 54.4468 55.69 54.9744 55.6917 55.4917C50.0496 52.1465 46.0715 48.5667 43.7609 44.749C46.932 51.6705 51.2274 56.635 56.2418 60.082C56.2539 60.1337 56.2608 60.1872 56.2746 60.2372C56.5332 60.3665 56.797 60.4941 57.0574 60.6217C60.8476 63.0668 65.0205 64.6809 69.4177 65.6396C82.2711 69.9005 98.368 72.5646 118.503 72.2991L119.536 54.1709C119.528 54.1571 119.516 54.1364 119.495 54.1088C119.35 53.9139 119.16 53.7346 118.936 53.5846Z" fill="#0E2F4F"/>
<path d="M62.7668 68.8693C66.3569 71.1352 71.8386 73.0595 79.1344 74.6149C84.3127 75.6823 87.5769 76.6928 89.1047 77.7084L89.1633 77.7498C90.3842 78.662 90.9705 79.6983 90.9067 80.8261C90.8342 82.0935 90.191 83.8316 87.5355 84.9111C85.8112 85.6146 83.6729 85.9561 81.0036 85.9561C76.8738 85.9561 72.2732 85.068 67.326 83.3161C62.615 81.5331 58.899 79.9311 56.2556 78.5413C56.0452 78.4378 55.8365 78.3792 55.6538 78.3792C55.5399 78.3792 55.3572 78.3982 55.1071 78.5689C54.8657 78.731 54.6329 78.95 54.6657 79.6466L55.0554 95.916C55.064 96.0901 55.1554 96.304 55.3347 96.5333C55.5624 96.8264 55.7538 96.8971 55.8779 96.9264C56.4349 97.0334 57.3022 97.2213 58.43 97.4817C59.118 97.6421 59.9026 97.8059 60.7699 97.9766L60.7837 97.761L62.496 98.218C62.8719 98.318 63.2427 98.3939 63.5962 98.4439C64.0342 98.5042 64.5411 98.5956 65.1084 98.7146C67.3449 99.0957 69.6815 99.3923 72.0024 99.5889C74.3286 99.7837 76.7031 99.8837 79.0603 99.8837C83.4022 99.8837 87.3838 99.3975 90.8963 98.437C94.3485 97.492 97.3368 96.1039 99.7785 94.3123C101.575 92.9932 103.103 91.4223 104.338 89.622L103.793 99.2061C103.772 99.563 103.836 99.8493 103.996 100.104C104.107 100.279 104.191 100.31 104.327 100.31H116.382C116.432 100.31 116.508 100.31 116.662 100.103C116.85 99.8493 116.948 99.563 116.969 99.2061L118.431 73.5562C103.738 74.696 82.09 74.8201 62.7668 68.8693Z" fill="#0E2F4F"/>
<path d="M131.052 72.3784C59.1646 87.4338 19.2163 70.5264 11.2084 21.6546C22.3167 62.572 62.265 79.4793 131.052 72.3784Z" fill="#88C946"/>
</g>
<defs>
<clipPath id="clip0">
<rect width="264" height="100.358" fill="white"/>
</clipPath>
</defs>
</svg>
